<svg width="241" height="58" viewBox="0 0 241 58" fill="none" xmlns="http://www.w3.org/2000/svg">
<path d="M94.1779 27.3036L71.9088 5L49.6396 27.3036L71.9088 49.6073L94.1779 27.3036Z" stroke="#F4BB46" stroke-width="6.53643"/>
<path d="M110.016 27.0546L94.2744 11.2891L78.5332 27.0546L94.2744 42.8201L110.016 27.0546Z" stroke="#065ACC" stroke-width="6.53643"/>
<path d="M65.3446 27.0546L49.6034 11.2891L33.8623 27.0546L49.6034 42.8201L65.3446 27.0546Z" stroke="#065ACC" stroke-width="6.53643"/>
<path d="M83.7876 13.0273L79.9248 16.8962L86.6703 23.6521L90.5332 19.7833L83.7876 13.0273Z" fill="#F4BB46"/>
<path d="M55.6458 29.4551L51.7861 33.3207L58.5316 40.0767L62.3913 36.2111L55.6458 29.4551Z" fill="#F4BB46"/>
<path d="M128 39.6817V14.3184H137.027C138.988 14.3184 140.617 14.6569 141.911 15.3339C143.213 16.011 144.186 16.9481 144.829 18.1451C145.472 19.3341 145.794 20.7088 145.794 22.2691C145.794 23.8213 145.468 25.1878 144.817 26.3685C144.174 27.5408 143.201 28.4531 141.898 29.1054C140.604 29.7577 138.976 30.0838 137.014 30.0838H130.176V26.7894H136.668C137.905 26.7894 138.91 26.6121 139.685 26.257C140.468 25.902 141.041 25.386 141.404 24.7089C141.767 24.0319 141.948 23.2188 141.948 22.2691C141.948 21.3114 141.763 20.4817 141.392 19.7799C141.029 19.0781 140.456 18.5414 139.673 18.1699C138.898 17.7901 137.88 17.6003 136.619 17.6003H131.821V39.6817H128ZM140.501 28.2385L146.758 39.6817H142.405L136.272 28.2385H140.501ZM155.308 14.3184V39.6817H151.488V14.3184H155.308ZM161.917 14.3184H166.554L174.616 34.0343H174.913L182.975 14.3184H187.612V39.6817H183.977V21.3279H183.742L176.273 39.6444H173.256L165.788 21.3156H165.553V39.6817H161.917V14.3184ZM194.212 39.6817V14.3184H198.033V36.3874H209.508V39.6817H194.212Z" fill="#065ACC"/>
</svg>
