<svg width="146" height="148" viewBox="0 0 146 148" fill="none" xmlns="http://www.w3.org/2000/svg">
<path d="M95.3156 55.3036L73.0465 33L50.7773 55.3036L73.0465 77.6073L95.3156 55.3036Z" stroke="#F4BB46" stroke-width="6.53643"/>
<path d="M111.154 55.0546L95.4121 39.2891L79.6709 55.0546L95.4121 70.8201L111.154 55.0546Z" stroke="#065ACC" stroke-width="6.53643"/>
<path d="M66.4823 55.0546L50.7411 39.2891L35 55.0546L50.7411 70.8201L66.4823 55.0546Z" stroke="#065ACC" stroke-width="6.53643"/>
<path d="M84.9253 41.0273L81.0625 44.8962L87.808 51.6521L91.6709 47.7833L84.9253 41.0273Z" fill="#F4BB46"/>
<path d="M56.7835 57.4551L52.9238 61.3207L59.6693 68.0767L63.529 64.2111L56.7835 57.4551Z" fill="#F4BB46"/>
<path d="M32 115.363V90H41.027C42.988 90 44.617 90.3385 45.911 91.0155C47.213 91.6926 48.186 92.6297 48.829 93.8267C49.472 95.0157 49.794 96.3904 49.794 97.9507C49.794 99.5029 49.468 100.869 48.817 102.05C48.174 103.222 47.201 104.135 45.898 104.787C44.604 105.439 42.976 105.765 41.014 105.765H34.176V102.471H40.668C41.905 102.471 42.91 102.294 43.685 101.939C44.468 101.584 45.041 101.068 45.404 100.391C45.767 99.7135 45.948 98.9004 45.948 97.9507C45.948 96.993 45.763 96.1633 45.392 95.4615C45.029 94.7597 44.456 94.223 43.673 93.8515C42.898 93.4717 41.88 93.2819 40.619 93.2819H35.821V115.363H32ZM44.501 103.92L50.758 115.363H46.405L40.272 103.92H44.501ZM59.308 90V115.363H55.488V90H59.308ZM65.917 90H70.554L78.616 109.716H78.913L86.975 90H91.612V115.363H87.977V97.0095H87.742L80.273 115.326H77.256L69.788 96.9972H69.553V115.363H65.917V90ZM98.212 115.363V90H102.033V112.069H113.508V115.363H98.212Z" fill="#065ACC"/>
</svg>
